<mxfile host="app.diagrams.net" modified="2024-03-25T12:25:24.604Z" agent="Mozilla/5.0 (Windows NT 10.0; Win64; x64) AppleWebKit/537.36 (KHTML, like Gecko) Chrome/122.0.0.0 Safari/537.36" version="24.0.7" etag="BOp1_cnJX8qO_AM6fqu0" type="github">
  <diagram name="第 1 页" id="8qHHf86Km8xu53TTmbzO">
    <mxGraphModel>
      <root>
        <mxCell id="0" />
        <mxCell id="1" parent="0" />
      </root>
    </mxGraphModel>
  </diagram>
</mxfile>
